<svg width="430" height="430" viewBox="0 0 430 430" fill="none" xmlns="http://www.w3.org/2000/svg">
<path d="M59.22 284.3C59.22 284.3 7.44997 177.88 101.5 88.64C101.57 88.58 116.31 73.8 116.38 73.74" stroke="#08A88A" stroke-width="12" stroke-linecap="round" stroke-linejoin="round"/>
<path d="M64.5298 73.74H116.37" stroke="#08A88A" stroke-width="12" stroke-linecap="round" stroke-linejoin="round"/>
<path d="M116.4 125.58V73.74" stroke="#08A88A" stroke-width="12" stroke-linecap="round" stroke-linejoin="round"/>
<path d="M147.14 59.31C147.14 59.31 253.22 7.70999 342.38 101.15C342.58 101.37 357.3 116.1 357.5 116.31" stroke="#121331" stroke-width="12" stroke-linecap="round" stroke-linejoin="round"/>
<path d="M357.7 64.6299V116.47" stroke="#121331" stroke-width="12" stroke-linecap="round" stroke-linejoin="round"/>
<path d="M305.86 116.5H357.7" stroke="#121331" stroke-width="12" stroke-linecap="round" stroke-linejoin="round"/>
<path d="M370.78 143.81C370.78 143.81 422.46 250.02 328.78 339.22C328.63 339.36 313.78 354.22 313.64 354.37" stroke="#08A88A" stroke-width="12" stroke-linecap="round" stroke-linejoin="round"/>
<path d="M365.46 354.37H313.62" stroke="#08A88A" stroke-width="12" stroke-linecap="round" stroke-linejoin="round"/>
<path d="M313.59 302.53V354.37" stroke="#08A88A" stroke-width="12" stroke-linecap="round" stroke-linejoin="round"/>
<path d="M284.13 370.69C284.13 370.69 177.71 422.46 88.4698 328.4L73.5698 313.53" stroke="#121331" stroke-width="12" stroke-linecap="round" stroke-linejoin="round"/>
<path d="M73.5698 365.37V313.53" stroke="#121331" stroke-width="12" stroke-linecap="round" stroke-linejoin="round"/>
<path d="M125.41 313.5H73.5698" stroke="#121331" stroke-width="12" stroke-linecap="round" stroke-linejoin="round"/>
</svg>
